<?xml version="1.0" encoding="utf-8"?>
<!-- Generator: Adobe Illustrator 16.0.0, SVG Export Plug-In . SVG Version: 6.00 Build 0)  -->
<!DOCTYPE svg PUBLIC "-//W3C//DTD SVG 1.1//EN" "http://www.w3.org/Graphics/SVG/1.1/DTD/svg11.dtd">
<svg version="1.1" id="Layer_1" xmlns="http://www.w3.org/2000/svg" xmlns:xlink="http://www.w3.org/1999/xlink" x="0px" y="0px"
	 width="270px" height="30px" viewBox="0 0 270 30" enable-background="new 0 0 270 30" xml:space="preserve">
<path d="M12.49,25.5h4.228V14.911h2.95l0.315-3.544h-3.266c0,0,0-1.318,0-2.017c0-0.835,0.165-1.166,0.977-1.166
	c0.651,0,2.289,0,2.289,0V4.5c0,0-2.414,0-2.927,0c-3.147,0-4.566,1.391-4.566,4.042c0,2.312,0,2.824,0,2.824h-2.2v3.594h2.198
	L12.49,25.5L12.49,25.5z"/>
<path d="M115.575,10.667c-0.055-1.115-0.229-1.878-0.495-2.547c-0.265-0.688-0.624-1.274-1.215-1.859
	c-0.579-0.583-1.158-0.939-1.859-1.212c-0.665-0.261-1.424-0.438-2.542-0.485c-1.123-0.054-1.479-0.064-4.328-0.064
	c-2.85,0-3.214,0.013-4.331,0.064c-1.119,0.047-1.88,0.225-2.55,0.485c-0.686,0.271-1.275,0.628-1.858,1.212
	c-0.579,0.583-0.938,1.171-1.203,1.859c-0.265,0.671-0.444,1.43-0.494,2.547c-0.052,1.125-0.063,1.484-0.063,4.331
	c0,2.855,0.018,3.211,0.063,4.33c0.049,1.115,0.226,1.881,0.492,2.548c0.267,0.688,0.627,1.274,1.203,1.858
	c0.587,0.584,1.174,0.938,1.858,1.209c0.671,0.259,1.431,0.436,2.55,0.492c1.121,0.049,1.482,0.062,4.332,0.062
	c2.851,0,3.208-0.017,4.329-0.062c1.117-0.063,1.878-0.235,2.541-0.492c0.695-0.271,1.283-0.629,1.86-1.209
	c0.591-0.584,0.95-1.172,1.213-1.858c0.266-0.672,0.439-1.429,0.495-2.548c0.05-1.119,0.059-1.479,0.059-4.33
	C115.637,12.148,115.625,11.792,115.575,10.667z M105.138,20.395c-2.979,0-5.396-2.414-5.396-5.395c0-2.979,2.419-5.393,5.396-5.393
	s5.395,2.414,5.395,5.393C110.53,17.977,108.114,20.395,105.138,20.395z M110.747,10.654c-0.696,0-1.265-0.563-1.265-1.255
	c0-0.696,0.567-1.264,1.265-1.264c0.694,0,1.255,0.565,1.255,1.264C112.003,10.088,111.439,10.654,110.747,10.654z M105.138,11.5
	c-1.933,0-3.5,1.567-3.5,3.5c0,1.934,1.566,3.5,3.5,3.5c1.937,0,3.5-1.566,3.5-3.5C108.638,13.067,107.07,11.5,105.138,11.5z"/>
<path d="M82.708,23.54c-5.047,0-10.095,0-15.144,0c-0.057-0.015-0.112-0.046-0.171-0.054c-2.028-0.266-3.688-1.758-4.182-3.742
	c-0.056-0.237-0.103-0.473-0.15-0.712c0-2.689,0-5.381,0-8.066c0.018-0.059,0.041-0.116,0.048-0.172
	c0.29-1.838,1.286-3.156,2.987-3.914c0.459-0.204,0.977-0.282,1.47-0.419c5.048,0,10.099,0,15.145,0
	c0.05,0.019,0.096,0.042,0.145,0.048c2.561,0.369,4.355,2.436,4.355,5.021c0,2.34,0,4.681,0,7.023c0,1.991-1.194,3.815-3.027,4.571
	C83.714,23.313,83.205,23.402,82.708,23.54z M71.811,15.027c0,1.01,0,2.026,0,3.034c0.001,0.443,0.153,0.545,0.547,0.355
	c2.1-1.002,4.2-2.001,6.299-3.007c0.117-0.057,0.284-0.199,0.275-0.289c-0.012-0.117-0.149-0.263-0.275-0.32
	c-2.092-1.076-4.197-2.136-6.297-3.198c-0.383-0.198-0.549-0.102-0.549,0.334C71.811,12.965,71.811,13.998,71.811,15.027z"/>
<g>
	<rect x="36.369" y="12.535" width="3.777" height="11.338"/>
	<path d="M38.259,10.392c-1.259,0-2.268-1.007-2.268-2.268c0-1.259,1.009-2.267,2.268-2.267c1.26,0,2.268,1.009,2.268,2.267
		C40.528,9.386,39.521,10.392,38.259,10.392z"/>
	<path d="M54.006,23.873h-3.777v-6.678c0-1.01-0.883-1.889-1.891-1.889c-1.01,0-1.895,0.879-1.895,1.889v6.678h-3.776V12.535h3.776
		v1.512c0.632-1.009,2.021-1.766,3.15-1.766c2.394,0,4.407,2.015,4.407,4.409L54.006,23.873L54.006,23.873z"/>
</g>
<path d="M255,3.451c-4.611,0-8.363,3.753-8.363,8.364c0,5.723,7.484,14.126,7.803,14.485c0.307,0.332,0.82,0.332,1.125,0
	c0.318-0.354,7.799-8.762,7.799-14.485C263.363,7.206,259.613,3.451,255,3.451z M258.74,11.426c0,2.064-1.674,3.739-3.74,3.739
	c-2.064,0-3.736-1.675-3.736-3.739c0-2.067,1.672-3.739,3.736-3.739C257.066,7.687,258.74,9.362,258.74,11.426z"/>
<path d="M196.928,19.588c0,0,0.721,0.064,1.1-0.419l0.764-0.94c0.355-0.473,1.234-0.771,2.104-0.291
	c0.479,0.271,1.342,0.795,1.871,1.194c0.563,0.418,1.733,1.396,1.733,1.396c0.558,0.47,0.688,1.156,0.313,1.89
	c0,0.007-0.017,0.021-0.017,0.021c-0.387,0.68-0.901,1.328-1.563,1.928c-0.008,0.012-0.008,0.012-0.019,0.021
	c-0.534,0.439-1.067,0.713-1.594,0.77c-0.063,0.021-0.146,0.021-0.229,0.021c-0.229,0-0.449-0.023-0.679-0.103l-0.021-0.027
	c-0.813-0.228-2.146-0.782-4.381-2.021c-1.453-0.799-2.66-1.609-3.686-2.424c-0.543-0.426-1.087-0.906-1.652-1.47
	c-0.021-0.021-0.031-0.03-0.058-0.062c-0.021-0.02-0.028-0.033-0.056-0.059l0,0l0,0c-0.021-0.021-0.032-0.035-0.062-0.052
	c-0.021-0.021-0.03-0.038-0.055-0.062c-0.56-0.563-1.045-1.113-1.47-1.654c-0.813-1.021-1.637-2.23-2.436-3.676
	c-1.229-2.232-1.798-3.571-2.021-4.377l-0.024-0.02c-0.063-0.227-0.104-0.45-0.104-0.679c-0.008-0.091,0-0.172,0.021-0.23
	c0.063-0.52,0.314-1.052,0.771-1.594c0.006-0.006,0.006-0.006,0.015-0.014c0.604-0.659,1.248-1.181,1.938-1.568
	c0.012,0,0.021-0.008,0.021-0.008c0.729-0.375,1.418-0.249,1.89,0.307c0.008,0.006,0.979,1.173,1.396,1.742
	c0.396,0.534,0.924,1.394,1.189,1.871c0.479,0.858,0.187,1.738-0.289,2.103l-0.938,0.75c-0.48,0.387-0.424,1.104-0.424,1.104
	S191.68,18.25,196.928,19.588z"/>
<g>
	<polygon points="175.348,6.446 154.384,6.446 164.863,15.615 	"/>
	<polygon points="164.863,18.407 152.786,7.841 152.786,23.555 176.938,23.555 176.938,7.841 	"/>
</g>
<path d="M225.846,19.275c0,5.053-6.162,4.666-7.158,1.295c-0.678-2.297,0.438-5.261,4.11-4.721c0-3.888-0.002-0.654-0.002-3.347
	c-6.499-0.302-9.12,7.437-5.351,11.521c1.713,1.855,3.541,1.977,5.57,1.977c3.582,0,5.791-3.063,5.791-7.477l0.006-7.695
	c1.946,1.737,5.078,1.965,5.479,1.939c0-3.669-0.003,0.172-0.003-3.073c-0.051-0.008-0.1-0.019-0.146-0.029
	c-0.007-0.001-0.014-0.002-0.02-0.004c-0.044-0.009-0.087-0.018-0.13-0.028c-0.005-0.001-0.011-0.002-0.017-0.003
	c-0.095-0.022-0.187-0.046-0.275-0.072c-0.006-0.001-0.012-0.003-0.016-0.004c-0.092-0.026-0.182-0.054-0.269-0.084
	c-0.002,0-0.005-0.001-0.007-0.001c-0.135-0.046-0.264-0.094-0.389-0.147l0,0c-0.961-0.407-4.112-1.875-4.112-5.322h-3.067v15.275
	H225.846z"/>
<path d="M136.998,13.357l7.816-9.088h-1.853l-6.788,7.891l-5.422-7.891H124.5l8.198,11.932L124.5,25.73h1.853l7.169-8.332
	l5.726,8.332h6.253L136.998,13.357L136.998,13.357z M134.46,16.307l-0.83-1.188l-6.609-9.455h2.845l5.334,7.63l0.831,1.188
	l6.934,9.918h-2.846L134.46,16.307L134.46,16.307z"/>
</svg>
